<?xml version="1.0" encoding="iso-8859-1"?>
<!-- Uploaded to: SVG Repo, www.svgrepo.com, Generator: SVG Repo Mixer Tools -->
<svg fill="#000000" height="800px" width="800px" version="1.1" id="Layer_1" xmlns="http://www.w3.org/2000/svg" xmlns:xlink="http://www.w3.org/1999/xlink" 
	 viewBox="0 0 512 512" xml:space="preserve">
<g>
	<g>
		<path d="M500.724,0.181h-104.49c-5.77,0-10.449,4.678-10.449,10.449v135.837c0,5.771,4.679,10.449,10.449,10.449h104.49
			c5.77,0,10.449-4.678,10.449-10.449V10.63C511.174,4.859,506.494,0.181,500.724,0.181z M490.276,136.018h-83.592V21.079h83.592
			V136.018z"/>
	</g>
</g>
<g>
	<g>
		<path d="M470.273,55.378h-43.588c-5.77,0-10.449,4.678-10.449,10.449c0,5.771,4.679,10.449,10.449,10.449h43.588
			c5.771,0,10.449-4.678,10.449-10.449C480.722,60.056,476.043,55.378,470.273,55.378z"/>
	</g>
</g>
<g>
	<g>
		<path d="M470.273,106.266h-43.588c-5.77,0-10.449,4.678-10.449,10.449c0,5.771,4.679,10.449,10.449,10.449h43.588
			c5.771,0,10.449-4.678,10.449-10.449C480.722,110.944,476.043,106.266,470.273,106.266z"/>
	</g>
</g>
<g>
	<g>
		<path d="M470.273,80.822h-43.588c-5.77,0-10.449,4.678-10.449,10.449c0,5.771,4.679,10.449,10.449,10.449h43.588
			c5.771,0,10.449-4.678,10.449-10.449C480.722,85.5,476.043,80.822,470.273,80.822z"/>
	</g>
</g>
<g>
	<g>
		<path d="M470.273,29.932h-43.588c-5.77,0-10.449,4.678-10.449,10.449c0,5.771,4.679,10.449,10.449,10.449h43.588
			c5.771,0,10.449-4.678,10.449-10.449C480.722,34.61,476.043,29.932,470.273,29.932z"/>
	</g>
</g>
<g>
	<g>
		<path d="M296.584,445.991h-0.137c-5.77,0-10.449,4.678-10.449,10.449s4.679,10.449,10.449,10.449h0.137
			c5.77,0,10.449-4.678,10.449-10.449S302.354,445.991,296.584,445.991z"/>
	</g>
</g>
<g>
	<g>
		<path d="M369.59,445.99h-39.203c-5.77,0-10.449,4.678-10.449,10.449c0,5.771,4.679,10.449,10.449,10.449h39.203
			c5.77,0,10.449-4.678,10.449-10.449C380.039,450.668,375.36,445.99,369.59,445.99z"/>
	</g>
</g>
<g>
	<g>
		<path d="M10.586,490.921h-0.137C4.679,490.921,0,495.599,0,501.37s4.679,10.449,10.449,10.449h0.137
			c5.77,0,10.449-4.678,10.449-10.449S16.356,490.921,10.586,490.921z"/>
	</g>
</g>
<g>
	<g>
		<path d="M501.551,490.92h-0.137c-5.77,0-10.449,4.678-10.449,10.449s4.679,10.449,10.449,10.449h0.137
			c5.77,0,10.449-4.678,10.449-10.449S507.321,490.92,501.551,490.92z"/>
	</g>
</g>
<g>
	<g>
		<path d="M294.107,211.934c-6.44,0-11.68,5.239-11.68,11.68c0,6.44,5.24,11.679,11.68,11.679s11.678-5.24,11.679-11.679
			C305.786,217.173,300.547,211.934,294.107,211.934z"/>
	</g>
</g>
<g>
	<g>
		<path d="M217.893,211.934c-6.44,0-11.679,5.239-11.679,11.68c0,6.44,5.239,11.679,11.679,11.679s11.68-5.24,11.68-11.679
			C229.572,217.173,224.332,211.934,217.893,211.934z"/>
	</g>
</g>
<g>
	<g>
		<path d="M266.255,261.164h-20.422c-5.77,0-10.449,4.678-10.449,10.449c0,11.391,9.268,20.66,20.66,20.66s20.659-9.268,20.66-20.66
			C276.704,265.842,272.025,261.164,266.255,261.164z"/>
	</g>
</g>
<g>
	<g>
		<path d="M165.145,309.768h-14.009v-17.481c0-5.771-4.679-10.449-10.449-10.449H56.064v-13.186h71.465
			c5.77,0,10.449-4.678,10.449-10.449c0-5.771-4.679-10.449-10.449-10.449H45.615c-5.77,0-10.449,4.678-10.449,10.449v23.635H10.604
			c-5.77,0-10.449,4.678-10.449,10.449v62.014c0,5.771,4.679,10.449,10.449,10.449h130.082c5.77,0,10.449-4.678,10.449-10.449
			v-23.635h14.009c5.77,0,10.449-4.678,10.449-10.449S170.915,309.768,165.145,309.768z M21.053,343.852v-41.116h109.185v41.116
			H21.053z"/>
	</g>
</g>
<g>
	<g>
		<path d="M501.414,346.934H461.05v-25.635c0-5.771-4.679-10.449-10.449-10.449H348.974c-5.77,0-10.449,4.678-10.449,10.449v25.635
			h-21.873l-4.152-1.73c-2.391-0.996-3.936-3.313-3.936-5.905v-16.27l27.314-15.661c0.19-0.11,0.377-0.225,0.56-0.346
			c13.676-9.031,22.655-25.092,24.021-42.964c0.021-0.264,0.03-0.531,0.03-0.796v-8.675c13.569-4.414,23.405-17.182,23.405-32.205
			c0-15.023-9.835-27.791-23.404-32.205v-3.68c6.147-13.255,30.955-74.061-6.348-121.589l0.001,0.001
			c-17.289-22.031-38.024-31.391-56.695-26.033c-15.795-11.703-34.504-17.407-56.98-17.407c-66.88,0-106.844,51.217-106.844,100.732
			c0,32.028,8.541,56.366,14.427,69.341c-11.744,5.32-19.945,17.128-19.945,30.836c0,15.022,9.836,27.791,23.405,32.205v8.675
			c0,0.265,0.01,0.532,0.03,0.796c1.372,17.945,10.289,34.006,23.853,42.964c0.187,0.124,0.377,0.241,0.573,0.352l27.469,15.704
			v16.221c0,2.59-1.545,4.908-3.936,5.905l-67.248,28.02c-17.599,7.333-29.89,26.679-29.89,47.045v70.651H44.39
			c-5.77,0-10.449,4.678-10.449,10.449c0,5.771,4.679,10.449,10.449,10.449h423.22c5.77,0,10.449-4.678,10.449-10.449
			c0-5.771-4.679-10.449-10.449-10.449H409.64v-70.651c0-20.368-12.292-39.713-29.89-47.047l-12.94-5.392h124.157v44.534h-58.629
			c-5.77,0-10.449,4.678-10.449,10.449c0,5.771,4.679,10.449,10.449,10.449h58.629v36.065c0,5.771,4.679,10.449,10.449,10.449
			c5.77,0,10.449-4.678,10.449-10.449V357.383C511.863,351.612,507.185,346.934,501.414,346.934z M240.468,42.37
			c26.203,0,40.133,9.316,48.333,16.323c3.16,2.701,7.621,3.272,11.362,1.451c10.728-5.221,24.762,1.383,37.54,17.667
			c0.001,0,0.001,0,0.001,0.001c21.894,27.894,16.074,63.475,9.659,84.295c-4.538-5.48-10.542-11.902-18.318-18.774
			c-5.031-4.448-11.886-7.787-19.143-11.321c-8.555-4.167-19.201-9.353-21.218-14.606c-1.317-3.43-4.337-5.918-7.958-6.55
			c-3.615-0.631-7.305,0.684-9.706,3.466c-14.12,16.355-31.669,23.973-55.23,23.973c-28.874,0-44.801,15.613-53.079,28.712
			c-0.353,0.559-0.696,1.119-1.027,1.677c-3.74-11.716-7.162-27.597-7.162-46.48C154.522,82.961,186.669,42.37,240.468,42.37z
			 M186.654,289.413c-7.984-5.406-13.285-15.293-14.246-26.572v-17.054c0-5.771-4.679-10.449-10.449-10.449
			c-7.144,0-12.956-5.813-12.956-12.956c0-7.143,5.813-12.956,12.956-12.956c5.77,0,10.449-4.678,10.449-10.449v-1.069
			c0.014-0.097,1.804-9.98,7.968-19.737c7.958-12.592,19.873-18.977,35.413-18.977c25.025,0,45.473-7.259,62.141-22.131
			c6.466,5.772,14.972,9.915,22.821,13.737c5.68,2.766,11.553,5.627,14.454,8.192c14.861,13.132,22.019,24.013,24.388,28.038v11.947
			c0,5.771,4.679,10.449,10.449,10.449c7.144,0,12.956,5.813,12.956,12.956c0,7.143-5.813,12.956-12.956,12.956
			c-5.77,0-10.449,4.678-10.449,10.449v17.052c-0.949,11.05-6.443,21.176-14.421,26.577l-56.099,32.167
			c-0.19,0.11-0.377,0.225-0.56,0.346c-7.835,5.173-17.185,5.173-25.02,0c-0.187-0.123-0.377-0.241-0.573-0.352L186.654,289.413z
			 M256.051,364.643l-32.849-17.561c0.736-2.484,1.132-5.098,1.132-7.783v-4.275l7.94,4.539c7.335,4.764,15.53,7.145,23.728,7.145
			c8.199,0,16.398-2.383,23.734-7.149l7.932-4.548v4.288c0,2.702,0.399,5.333,1.144,7.832L256.051,364.643z M263.797,398.827
			l-3.984,3.983h-7.259l-3.984-3.983l7.613-7.613L263.797,398.827z M226.433,490.921H123.259v-70.651
			c0-11.777,7.322-23.71,17.031-27.756l63.472-26.446l16.526,39.543c1.328,3.18,4.141,5.5,7.515,6.201
			c0.706,0.146,1.418,0.218,2.125,0.218c0.701,0,1.397-0.075,2.079-0.213l4.862,4.863L226.433,490.921z M233.688,383.482
			l-3.818-9.138l8.565,4.579L233.688,383.482z M247.535,490.92l8.515-60.57l8.515,60.57H247.535z M282.231,374.344l-3.818,9.138
			l-4.747-4.559L282.231,374.344z M371.711,392.514c9.708,4.045,17.03,15.978,17.03,27.756v70.651H285.669l-10.404-74.008
			l5.053-5.053c0.61,0.11,1.23,0.171,1.856,0.171c0.707,0,1.419-0.072,2.125-0.218c3.374-0.701,6.187-3.022,7.515-6.201
			l16.511-39.508L371.711,392.514z M440.152,346.934h-80.729v-15.187h80.729V346.934z"/>
	</g>
</g>
<g>
	<g>
		<path d="M75.645,311.671c-6.407,0-11.62,5.213-11.62,11.621c0,6.408,5.213,11.621,11.62,11.621
			c6.407,0,11.621-5.213,11.621-11.621C87.267,316.884,82.054,311.671,75.645,311.671z"/>
	</g>
</g>
</svg>